<svg width="30" height="30" viewBox="0 0 30 30" fill="none" xmlns="http://www.w3.org/2000/svg">
<path fill-rule="evenodd" clip-rule="evenodd" d="M13.6065 0.0354888C10.7582 0.330907 7.9829 1.43011 5.82657 3.1167C5.63088 3.26977 5.40791 3.44348 5.33107 3.5027L5.19137 3.61048L3.91206 2.09597C3.20838 1.26294 2.57657 0.551426 2.50797 0.514733C2.29203 0.399267 2.09792 0.506741 1.28084 1.19409C0.455704 1.88816 0.300737 2.07357 0.357402 2.29911C0.401644 2.47519 8.86991 12.511 9.06797 12.622C9.15469 12.6707 9.28536 12.6917 9.36942 12.6707C9.45105 12.6502 10.02 12.2094 10.6338 11.6912C11.2475 11.1729 11.7788 10.7584 11.8145 10.77C11.8501 10.7816 14.9569 14.4383 18.7185 18.8957L25.5576 27.0004L25.2941 27.2152C24.6031 27.7785 24.5074 27.9738 24.7729 28.2794C24.892 28.4166 25.1808 28.5057 27.0562 28.984C29.3549 29.5704 29.3698 29.572 29.5726 29.2629C29.6583 29.1322 29.6507 28.9249 29.4869 26.9214C29.2935 24.5557 29.277 24.4795 28.9452 24.4067C28.7258 24.3586 28.6287 24.4077 28.1733 24.7971C27.978 24.9641 27.8047 25.1009 27.788 25.101C27.7714 25.1013 27.5741 24.8845 27.3497 24.6193L26.9417 24.1371L27.4485 23.3836C28.6989 21.5247 29.5432 19.341 29.8859 17.079C30.0222 16.1799 30.0404 13.9837 29.9187 13.1131C29.4504 9.76097 28.069 6.90876 25.7582 4.52265C23.4517 2.14108 20.4576 0.618938 17.0976 0.119773C16.3615 0.010361 14.3231 -0.0388047 13.6065 0.0354888ZM17.061 1.09425C23.2521 2.04371 27.9542 6.7612 28.9198 12.992C29.0691 13.955 29.0672 16.0158 28.9161 16.9882C28.5763 19.1752 27.6657 21.4485 26.4719 23.0904L26.2834 23.3495L19.3338 15.113C14.3585 9.21634 12.3401 6.86528 12.2292 6.83743C12.144 6.81606 12.0111 6.82296 11.9338 6.85269C11.8565 6.88248 11.3 7.32418 10.6971 7.83431C10.0942 8.34443 9.57856 8.75314 9.55123 8.74254C9.5239 8.73195 8.67876 7.74633 7.67321 6.55225C6.16342 4.75957 5.85754 4.36595 5.9179 4.29329C6.01712 4.17389 7.0134 3.43053 7.42479 3.16896C9.25869 2.00303 11.4244 1.24283 13.5762 1.00972C14.3265 0.928404 16.2902 0.976056 17.061 1.09425ZM5.66724 5.67405C7.51721 7.87276 9.10791 9.73754 9.20215 9.81807C9.29633 9.89866 9.43984 9.96454 9.52099 9.96454C9.6228 9.96454 10.0189 9.67112 10.7994 9.01756C11.4214 8.49677 11.9704 8.0676 12.0194 8.06391C12.0685 8.06028 15.4979 12.0735 19.6406 16.9823C23.7831 21.8911 27.2547 25.9895 27.3552 26.0899C27.6016 26.3361 27.8357 26.3315 28.1557 26.0745C28.2912 25.9657 28.41 25.8863 28.4197 25.898C28.4471 25.9309 28.631 28.3365 28.6079 28.3596C28.5908 28.3767 26.6658 27.8979 26.3118 27.7884C26.2135 27.758 26.2309 27.7212 26.4482 27.5001C26.7987 27.1432 26.7875 26.9729 26.3807 26.4824C24.0438 23.6646 12.1352 9.60779 12.0608 9.57927C11.7997 9.47918 11.6605 9.56389 10.5325 10.5095C9.89686 11.0423 9.35348 11.4769 9.32499 11.4752C9.27336 11.4722 1.5918 2.38006 1.55926 2.28343C1.54174 2.23142 2.19507 1.66643 2.26519 1.67291C2.28634 1.67485 3.81728 3.47539 5.66724 5.67405ZM20.8185 6.02281C20.8185 6.25604 20.8147 6.25986 20.5165 6.33136C20.1192 6.42661 19.7755 6.68273 19.565 7.04051C19.3232 7.45146 19.3221 7.99519 19.5623 8.40335C19.9016 8.98008 20.3408 9.1774 21.2853 9.1774C21.9046 9.1774 21.9226 9.18134 22.0958 9.35439C22.1933 9.45175 22.273 9.59004 22.273 9.6618C22.273 9.73355 22.1933 9.87184 22.0958 9.9692C21.9238 10.1411 21.9013 10.1462 21.3162 10.1462C20.8028 10.1462 20.6905 10.128 20.5575 10.0235C20.4716 9.95606 20.3843 9.84708 20.3635 9.78132C20.3298 9.67536 20.2701 9.6618 19.8379 9.6618H19.3504L19.392 9.88885C19.4932 10.4418 19.9544 10.9199 20.5165 11.0547C20.8147 11.1262 20.8185 11.13 20.8185 11.3632V11.5994H21.3033H21.7882V11.3632C21.7882 11.13 21.7919 11.1262 22.0901 11.0547C22.4875 10.9594 22.8312 10.7033 23.0416 10.3455C23.2835 9.93457 23.2846 9.39084 23.0444 8.98268C22.7021 8.40105 22.2923 8.2151 21.3441 8.21129C20.7012 8.20868 20.6844 8.20505 20.5108 8.03164C20.4133 7.93427 20.3336 7.79598 20.3336 7.72423C20.3336 7.65248 20.4133 7.51419 20.5108 7.41682C20.6828 7.24493 20.7053 7.23984 21.2905 7.23984C21.8039 7.23984 21.9162 7.258 22.0491 7.36251C22.135 7.42996 22.2223 7.53895 22.2432 7.60471C22.2769 7.71067 22.3365 7.72423 22.7687 7.72423H23.2562L23.2146 7.49717C23.1134 6.94418 22.6522 6.46609 22.0901 6.33136C21.7919 6.25986 21.7882 6.25604 21.7882 6.02281V5.78667H21.3033H20.8185V6.02281ZM2.07222 7.3458C1.13508 8.89979 0.408189 10.9632 0.115043 12.9012C-0.0383478 13.9156 -0.0383478 16.0646 0.115043 17.079C0.613398 20.374 2.06707 23.2668 4.39157 25.5891C9.35451 30.5475 17.0384 31.426 22.97 27.7133C23.3033 27.5047 23.6704 27.2569 23.7856 27.1627L23.9953 26.9915L23.8305 26.7581C23.74 26.6297 23.6145 26.4584 23.5517 26.3773L23.4375 26.23L22.9007 26.5963C22.1562 27.1042 21.3736 27.5347 20.5625 27.8824C19.9445 28.1473 18.7651 28.5531 18.613 28.5531C18.5807 28.5531 18.7763 28.3283 19.0478 28.0535C19.8752 27.2161 20.5034 26.3345 21.0491 25.2444C21.4933 24.3573 21.4909 24.403 21.101 24.2307C20.5245 23.976 20.5683 23.9627 20.3445 24.4597C20.0942 25.0153 19.4616 26.0833 19.1121 26.54C18.2213 27.7045 17.1891 28.5137 16.1942 28.8276C15.3951 29.0799 15.4852 29.4918 15.4852 25.5862V22.1954L15.9549 22.1973C16.4561 22.1994 18.0602 22.2856 18.8295 22.3519L19.295 22.392L19.3263 22.1877C19.3434 22.0754 19.3715 21.8577 19.3887 21.704L19.42 21.4245L19.0132 21.389C18.7895 21.3694 17.9042 21.3194 17.0458 21.2779L15.4852 21.2024V19.065V16.9277H15.0004H14.5156V19.0677V21.2077L13.4095 21.2487C12.1855 21.2941 10.5782 21.4236 9.53626 21.5609C8.5021 21.6972 8.62701 21.7791 8.40398 20.8179C8.04714 19.2798 7.85047 17.8815 7.75248 16.1859L7.71133 15.4745H10.6286H13.5459V14.9901V14.5057H10.6319H7.71799L7.73805 13.7943L7.75811 13.0828L7.29388 13.0653L6.82965 13.0476L6.78613 13.7767L6.74256 14.5057H3.83964H0.936664L0.973027 14.097C1.18175 11.7488 1.76574 9.80875 2.80378 8.0145L3.10875 7.48736L2.71784 7.2425C2.50288 7.10784 2.31688 6.99764 2.30458 6.99764C2.29221 6.99764 2.18767 7.15435 2.07222 7.3458ZM6.78528 16.2465C6.8751 17.9088 7.08958 19.4426 7.44624 20.9731C7.64551 21.8283 7.64605 21.8351 7.52078 21.8606C7.45133 21.8748 7.10813 21.9447 6.75813 22.016C5.97433 22.1755 4.78617 22.4944 4.06497 22.7385C3.7671 22.8395 3.49334 22.922 3.45674 22.922C3.3085 22.922 2.38924 21.2567 1.94446 20.1824C1.51465 19.1441 1.12454 17.5428 1.03345 16.4433C1.01278 16.1935 0.981633 15.8733 0.96424 15.7318L0.932604 15.4745H3.83806H6.74353L6.78528 16.2465ZM14.5156 25.5862C14.5156 29.4732 14.5949 29.072 13.8704 28.849C11.998 28.2725 10.3189 26.2853 9.15415 23.2674C9.02827 22.9412 8.93991 22.6596 8.95785 22.6417C9.07924 22.5204 12.3005 22.2351 13.8641 22.2071L14.5156 22.1954V25.5862ZM8.03393 23.028C8.32853 23.9429 9.00203 25.3819 9.54499 26.2564C9.97322 26.9463 10.3401 27.4136 10.9321 28.0233C11.2151 28.3147 11.4139 28.5531 11.3738 28.5531C11.1431 28.5531 9.68135 27.9923 8.849 27.5845C7.74242 27.0424 7.05158 26.6078 6.17675 25.9036C5.50331 25.3615 4.074 23.913 4.10903 23.808C4.14891 23.6884 5.63167 23.2484 7.00055 22.95C7.91163 22.7514 7.94574 22.754 8.03393 23.028Z" fill="white"/>
</svg>
