<svg width="27" height="28" viewBox="0 0 27 28" fill="none" xmlns="http://www.w3.org/2000/svg">
<mask id="path-1-inside-1_361_54" fill="white">
<path fill-rule="evenodd" clip-rule="evenodd" d="M12.8483 0.0514605C12.2403 0.228921 12.1055 0.339882 10.8522 1.69542C10.2807 2.3135 9.77423 2.81958 9.72666 2.81996C9.67902 2.82034 9.01457 2.69965 8.25009 2.55172C6.58119 2.22879 6.51174 2.22015 6.09442 2.28375C5.31726 2.4022 4.61507 2.99594 4.39484 3.72077C4.34874 3.87237 4.22569 4.68486 4.12135 5.52628C4.01706 6.36765 3.91376 7.07399 3.89183 7.09592C3.86995 7.1178 3.26418 7.40857 2.54575 7.74205C1.82732 8.07548 1.13224 8.41121 1.0011 8.48805C0.685116 8.67322 0.341788 9.06697 0.172859 9.43786C0.0071555 9.80169 -0.0486805 10.4424 0.0496477 10.8522C0.0881477 11.0126 0.447281 11.7266 0.905124 12.5528L1.69426 13.9769L0.905124 15.401C0.442906 16.2351 0.088257 16.9407 0.0491008 17.104C-0.052782 17.5285 0.00868672 18.1589 0.189046 18.5402C0.506124 19.2104 0.720827 19.3637 2.49998 20.1903C3.24373 20.5358 3.87012 20.8364 3.89194 20.8581C3.91381 20.88 4.01641 21.5872 4.11987 22.4299C4.2357 23.3727 4.35 24.0811 4.4171 24.2721C4.72226 25.1403 5.52316 25.7032 6.43392 25.6896C6.66109 25.6862 7.42393 25.5671 8.23412 25.4084C9.00741 25.257 9.67902 25.1335 9.72666 25.1339C9.77423 25.1343 10.2807 25.64 10.8522 26.2577C11.4237 26.8755 12.0143 27.465 12.1647 27.568C12.9669 28.1171 13.9684 28.0936 14.735 27.5076C14.8253 27.4387 15.3667 26.8765 15.9382 26.2584C16.5097 25.6403 17.0162 25.1343 17.0637 25.1339C17.1114 25.1335 17.7758 25.2542 18.5403 25.4021C20.2092 25.7251 20.2787 25.7337 20.696 25.6701C21.4731 25.5516 22.1753 24.9579 22.3956 24.2331C22.4417 24.0815 22.5647 23.269 22.6691 22.4276C22.7733 21.5862 22.8766 20.8799 22.8986 20.8579C22.9205 20.836 23.5262 20.5453 24.2447 20.2118C24.9631 19.8784 25.6582 19.5426 25.7893 19.4658C26.1053 19.2806 26.4486 18.8869 26.6175 18.516C26.7833 18.1521 26.8391 17.5114 26.7408 17.1016C26.7023 16.9412 26.3431 16.2273 25.8853 15.401L25.0961 13.9769L25.8853 12.5528C26.3475 11.7187 26.7021 11.0132 26.7413 10.8498C26.9465 9.99463 26.5545 8.97143 25.8517 8.5278C25.7335 8.45316 25.0295 8.10917 24.2874 7.76344C23.5454 7.41765 22.9196 7.11632 22.8968 7.09379C22.8741 7.07126 22.7705 6.36125 22.6666 5.516C22.5514 4.57784 22.4358 3.85946 22.3698 3.67183C22.1534 3.0561 21.6602 2.57529 21.0213 2.35719C20.584 2.2079 20.085 2.24612 18.5513 2.54641C17.7808 2.69724 17.1114 2.82034 17.0637 2.81996C17.0162 2.81958 16.5097 2.31383 15.9382 1.69613C14.8865 0.559343 14.5514 0.269445 14.1061 0.111234C13.7715 -0.0076567 13.1519 -0.0370786 12.8483 0.0514605ZM13.6841 1.47273C13.7923 1.51823 14.3417 2.06544 15.111 2.89395C16.4129 4.29598 16.5099 4.37402 16.8748 4.31315C16.9612 4.29871 17.7825 4.14203 18.6999 3.96495C19.6577 3.78005 20.426 3.65739 20.5046 3.67686C20.728 3.7322 20.984 3.95538 21.0431 4.14624C21.0734 4.24435 21.1889 5.08747 21.2996 6.01989C21.4128 6.97244 21.5364 7.79166 21.5817 7.88971C21.6261 7.98574 21.7157 8.09911 21.7808 8.14166C21.8458 8.1842 22.6005 8.54339 23.4577 8.93987C25.2348 9.76183 25.3718 9.85868 25.3718 10.2932C25.3718 10.5213 25.2772 10.718 24.4843 12.1396C23.7047 13.5375 23.5969 13.7607 23.5969 13.9769C23.5969 14.1931 23.7047 14.4164 24.4843 15.8142C25.2772 17.2358 25.3718 17.4326 25.3718 17.6607C25.3718 18.0952 25.2348 18.192 23.4577 19.014C22.6005 19.4105 21.8458 19.7696 21.7808 19.8122C21.7157 19.8547 21.6261 19.9681 21.5817 20.0641C21.5364 20.1622 21.4128 20.9814 21.2996 21.934C21.1889 22.8664 21.0734 23.7095 21.0431 23.8076C20.983 24.0016 20.7252 24.224 20.4983 24.2775C20.4145 24.2973 19.6672 24.1779 18.6936 23.9891C17.7797 23.812 16.9612 23.6552 16.8748 23.6407C16.5093 23.5797 16.4121 23.6578 15.1163 25.0546C14.4316 25.7926 13.8025 26.4321 13.7181 26.4757C13.5265 26.5748 13.3334 26.5765 13.1063 26.4811C12.9981 26.4356 12.4487 25.8884 11.6794 25.0599C10.7419 24.0503 10.3843 23.7005 10.2525 23.6641C10.0445 23.6067 9.99413 23.6142 7.97923 24.0056C7.11314 24.1738 6.35867 24.2942 6.28391 24.2759C6.04526 24.2178 5.80031 23.9933 5.74098 23.7782C5.71013 23.6662 5.59594 22.824 5.48728 21.9066C5.28734 20.2188 5.22702 19.9544 5.00964 19.8122C4.94456 19.7696 4.18993 19.4105 3.3327 19.014C1.55558 18.192 1.41864 18.0952 1.41864 17.6607C1.41864 17.4326 1.51319 17.2358 2.30611 15.8142C3.08568 14.4164 3.19352 14.1931 3.19352 13.9769C3.19352 13.7607 3.08568 13.5375 2.30611 12.1396C1.51319 10.718 1.41864 10.5213 1.41864 10.2932C1.41864 9.85764 1.55547 9.7609 3.3327 8.93933C4.18993 8.54301 4.94456 8.18404 5.00964 8.14155C5.22702 7.99958 5.28734 7.73511 5.48728 6.04723C5.59594 5.12985 5.71013 4.28761 5.74098 4.17561C5.80124 3.95713 6.04761 3.73395 6.29212 3.67631C6.37595 3.65657 7.1232 3.77595 8.0968 3.96473C9.01074 4.14187 9.82919 4.29866 9.91566 4.31309C10.2813 4.37418 10.3796 4.29532 11.653 2.92064C12.3255 2.19461 12.9495 1.55531 13.0397 1.49991C13.2346 1.38031 13.4432 1.37151 13.6841 1.47273ZM9.51239 8.6958C8.93101 8.85757 8.3458 9.31109 8.074 9.8105C7.65914 10.5727 7.65176 11.8001 8.05726 12.597C8.42876 13.327 9.2535 13.8129 10.1212 13.8129C11.1299 13.8129 11.9895 13.2052 12.3377 12.2461C12.4445 11.9517 12.4655 11.7879 12.4655 11.25C12.4655 10.3205 12.2865 9.81433 11.7776 9.30546C11.1947 8.72255 10.2906 8.47924 9.51239 8.6958ZM16.2521 9.20544C16.1306 9.27123 15.0822 10.5993 12.8953 13.4574C11.1462 15.7433 9.66962 17.6875 9.614 17.7777C9.24863 18.3701 9.92539 19.081 10.538 18.7484C10.6588 18.6828 11.7147 17.3454 13.8948 14.4965C15.6441 12.2105 17.1208 10.2664 17.1765 10.1761C17.5418 9.58349 16.8653 8.8731 16.2521 9.20544ZM10.6752 10.2172C10.9824 10.4515 11.0565 10.6745 11.0349 11.2984C11.0148 11.8784 10.9593 12.0123 10.6398 12.2509C10.4114 12.4214 9.82515 12.4112 9.57435 12.2323C9.30266 12.0385 9.18689 11.7369 9.18547 11.2188C9.18394 10.669 9.3118 10.3752 9.64019 10.1737C9.94803 9.98484 10.3952 10.0037 10.6752 10.2172ZM15.8706 14.2734C15.1961 14.524 14.6704 15.0681 14.4313 15.7629C14.2957 16.1569 14.2821 17.2037 14.4071 17.6245C14.9309 19.3884 17.1324 19.9193 18.3823 18.583C18.8396 18.0942 19.028 17.5558 19.028 16.7386C19.028 15.4669 18.4528 14.6038 17.3562 14.2302C16.9642 14.0966 16.294 14.116 15.8706 14.2734ZM17.2196 15.7243C17.4877 15.9152 17.6035 16.2188 17.6049 16.735C17.6065 17.298 17.4787 17.5829 17.1337 17.785C16.6719 18.0557 16.0607 17.8758 15.8365 17.4034C15.732 17.1831 15.712 16.3726 15.8051 16.127C15.8821 15.9237 16.0637 15.7308 16.2663 15.6371C16.513 15.5229 16.9993 15.5674 17.2196 15.7243Z"/>
</mask>
<path fill-rule="evenodd" clip-rule="evenodd" d="M12.8483 0.0514605C12.2403 0.228921 12.1055 0.339882 10.8522 1.69542C10.2807 2.3135 9.77423 2.81958 9.72666 2.81996C9.67902 2.82034 9.01457 2.69965 8.25009 2.55172C6.58119 2.22879 6.51174 2.22015 6.09442 2.28375C5.31726 2.4022 4.61507 2.99594 4.39484 3.72077C4.34874 3.87237 4.22569 4.68486 4.12135 5.52628C4.01706 6.36765 3.91376 7.07399 3.89183 7.09592C3.86995 7.1178 3.26418 7.40857 2.54575 7.74205C1.82732 8.07548 1.13224 8.41121 1.0011 8.48805C0.685116 8.67322 0.341788 9.06697 0.172859 9.43786C0.0071555 9.80169 -0.0486805 10.4424 0.0496477 10.8522C0.0881477 11.0126 0.447281 11.7266 0.905124 12.5528L1.69426 13.9769L0.905124 15.401C0.442906 16.2351 0.088257 16.9407 0.0491008 17.104C-0.052782 17.5285 0.00868672 18.1589 0.189046 18.5402C0.506124 19.2104 0.720827 19.3637 2.49998 20.1903C3.24373 20.5358 3.87012 20.8364 3.89194 20.8581C3.91381 20.88 4.01641 21.5872 4.11987 22.4299C4.2357 23.3727 4.35 24.0811 4.4171 24.2721C4.72226 25.1403 5.52316 25.7032 6.43392 25.6896C6.66109 25.6862 7.42393 25.5671 8.23412 25.4084C9.00741 25.257 9.67902 25.1335 9.72666 25.1339C9.77423 25.1343 10.2807 25.64 10.8522 26.2577C11.4237 26.8755 12.0143 27.465 12.1647 27.568C12.9669 28.1171 13.9684 28.0936 14.735 27.5076C14.8253 27.4387 15.3667 26.8765 15.9382 26.2584C16.5097 25.6403 17.0162 25.1343 17.0637 25.1339C17.1114 25.1335 17.7758 25.2542 18.5403 25.4021C20.2092 25.7251 20.2787 25.7337 20.696 25.6701C21.4731 25.5516 22.1753 24.9579 22.3956 24.2331C22.4417 24.0815 22.5647 23.269 22.6691 22.4276C22.7733 21.5862 22.8766 20.8799 22.8986 20.8579C22.9205 20.836 23.5262 20.5453 24.2447 20.2118C24.9631 19.8784 25.6582 19.5426 25.7893 19.4658C26.1053 19.2806 26.4486 18.8869 26.6175 18.516C26.7833 18.1521 26.8391 17.5114 26.7408 17.1016C26.7023 16.9412 26.3431 16.2273 25.8853 15.401L25.0961 13.9769L25.8853 12.5528C26.3475 11.7187 26.7021 11.0132 26.7413 10.8498C26.9465 9.99463 26.5545 8.97143 25.8517 8.5278C25.7335 8.45316 25.0295 8.10917 24.2874 7.76344C23.5454 7.41765 22.9196 7.11632 22.8968 7.09379C22.8741 7.07126 22.7705 6.36125 22.6666 5.516C22.5514 4.57784 22.4358 3.85946 22.3698 3.67183C22.1534 3.0561 21.6602 2.57529 21.0213 2.35719C20.584 2.2079 20.085 2.24612 18.5513 2.54641C17.7808 2.69724 17.1114 2.82034 17.0637 2.81996C17.0162 2.81958 16.5097 2.31383 15.9382 1.69613C14.8865 0.559343 14.5514 0.269445 14.1061 0.111234C13.7715 -0.0076567 13.1519 -0.0370786 12.8483 0.0514605ZM13.6841 1.47273C13.7923 1.51823 14.3417 2.06544 15.111 2.89395C16.4129 4.29598 16.5099 4.37402 16.8748 4.31315C16.9612 4.29871 17.7825 4.14203 18.6999 3.96495C19.6577 3.78005 20.426 3.65739 20.5046 3.67686C20.728 3.7322 20.984 3.95538 21.0431 4.14624C21.0734 4.24435 21.1889 5.08747 21.2996 6.01989C21.4128 6.97244 21.5364 7.79166 21.5817 7.88971C21.6261 7.98574 21.7157 8.09911 21.7808 8.14166C21.8458 8.1842 22.6005 8.54339 23.4577 8.93987C25.2348 9.76183 25.3718 9.85868 25.3718 10.2932C25.3718 10.5213 25.2772 10.718 24.4843 12.1396C23.7047 13.5375 23.5969 13.7607 23.5969 13.9769C23.5969 14.1931 23.7047 14.4164 24.4843 15.8142C25.2772 17.2358 25.3718 17.4326 25.3718 17.6607C25.3718 18.0952 25.2348 18.192 23.4577 19.014C22.6005 19.4105 21.8458 19.7696 21.7808 19.8122C21.7157 19.8547 21.6261 19.9681 21.5817 20.0641C21.5364 20.1622 21.4128 20.9814 21.2996 21.934C21.1889 22.8664 21.0734 23.7095 21.0431 23.8076C20.983 24.0016 20.7252 24.224 20.4983 24.2775C20.4145 24.2973 19.6672 24.1779 18.6936 23.9891C17.7797 23.812 16.9612 23.6552 16.8748 23.6407C16.5093 23.5797 16.4121 23.6578 15.1163 25.0546C14.4316 25.7926 13.8025 26.4321 13.7181 26.4757C13.5265 26.5748 13.3334 26.5765 13.1063 26.4811C12.9981 26.4356 12.4487 25.8884 11.6794 25.0599C10.7419 24.0503 10.3843 23.7005 10.2525 23.6641C10.0445 23.6067 9.99413 23.6142 7.97923 24.0056C7.11314 24.1738 6.35867 24.2942 6.28391 24.2759C6.04526 24.2178 5.80031 23.9933 5.74098 23.7782C5.71013 23.6662 5.59594 22.824 5.48728 21.9066C5.28734 20.2188 5.22702 19.9544 5.00964 19.8122C4.94456 19.7696 4.18993 19.4105 3.3327 19.014C1.55558 18.192 1.41864 18.0952 1.41864 17.6607C1.41864 17.4326 1.51319 17.2358 2.30611 15.8142C3.08568 14.4164 3.19352 14.1931 3.19352 13.9769C3.19352 13.7607 3.08568 13.5375 2.30611 12.1396C1.51319 10.718 1.41864 10.5213 1.41864 10.2932C1.41864 9.85764 1.55547 9.7609 3.3327 8.93933C4.18993 8.54301 4.94456 8.18404 5.00964 8.14155C5.22702 7.99958 5.28734 7.73511 5.48728 6.04723C5.59594 5.12985 5.71013 4.28761 5.74098 4.17561C5.80124 3.95713 6.04761 3.73395 6.29212 3.67631C6.37595 3.65657 7.1232 3.77595 8.0968 3.96473C9.01074 4.14187 9.82919 4.29866 9.91566 4.31309C10.2813 4.37418 10.3796 4.29532 11.653 2.92064C12.3255 2.19461 12.9495 1.55531 13.0397 1.49991C13.2346 1.38031 13.4432 1.37151 13.6841 1.47273ZM9.51239 8.6958C8.93101 8.85757 8.3458 9.31109 8.074 9.8105C7.65914 10.5727 7.65176 11.8001 8.05726 12.597C8.42876 13.327 9.2535 13.8129 10.1212 13.8129C11.1299 13.8129 11.9895 13.2052 12.3377 12.2461C12.4445 11.9517 12.4655 11.7879 12.4655 11.25C12.4655 10.3205 12.2865 9.81433 11.7776 9.30546C11.1947 8.72255 10.2906 8.47924 9.51239 8.6958ZM16.2521 9.20544C16.1306 9.27123 15.0822 10.5993 12.8953 13.4574C11.1462 15.7433 9.66962 17.6875 9.614 17.7777C9.24863 18.3701 9.92539 19.081 10.538 18.7484C10.6588 18.6828 11.7147 17.3454 13.8948 14.4965C15.6441 12.2105 17.1208 10.2664 17.1765 10.1761C17.5418 9.58349 16.8653 8.8731 16.2521 9.20544ZM10.6752 10.2172C10.9824 10.4515 11.0565 10.6745 11.0349 11.2984C11.0148 11.8784 10.9593 12.0123 10.6398 12.2509C10.4114 12.4214 9.82515 12.4112 9.57435 12.2323C9.30266 12.0385 9.18689 11.7369 9.18547 11.2188C9.18394 10.669 9.3118 10.3752 9.64019 10.1737C9.94803 9.98484 10.3952 10.0037 10.6752 10.2172ZM15.8706 14.2734C15.1961 14.524 14.6704 15.0681 14.4313 15.7629C14.2957 16.1569 14.2821 17.2037 14.4071 17.6245C14.9309 19.3884 17.1324 19.9193 18.3823 18.583C18.8396 18.0942 19.028 17.5558 19.028 16.7386C19.028 15.4669 18.4528 14.6038 17.3562 14.2302C16.9642 14.0966 16.294 14.116 15.8706 14.2734ZM17.2196 15.7243C17.4877 15.9152 17.6035 16.2188 17.6049 16.735C17.6065 17.298 17.4787 17.5829 17.1337 17.785C16.6719 18.0557 16.0607 17.8758 15.8365 17.4034C15.732 17.1831 15.712 16.3726 15.8051 16.127C15.8821 15.9237 16.0637 15.7308 16.2663 15.6371C16.513 15.5229 16.9993 15.5674 17.2196 15.7243Z" fill="white" stroke="#D82935" stroke-width="0.2" mask="url(#path-1-inside-1_361_54)"/>
</svg>
