<svg width="66" height="48" fill="none" xmlns="http://www.w3.org/2000/svg"><path fill="#fff" d="M0 0h66v48H0z"/><path d="M14 37v1h15.518V23.833h-7.455a7.13 7.13 0 0 1 .63-2.518c.957-2.078 2.85-3.62 5.88-4.547l.708-.217V9.79l-1.19.228c-4.497.865-8.028 2.712-10.486 5.609l-.004.005C15.162 18.547 14 22.454 14 27.238V37Zm37.05-20.23.713-.214V9.783l-1.194.236c-4.374.866-7.86 2.698-10.374 5.547l-.005.005c-2.513 2.888-3.708 6.82-3.708 11.667V38H52V23.833h-7.464c.054-.76.274-1.56.679-2.41l.006-.012.006-.013c.962-2.173 2.842-3.736 5.823-4.629Z" stroke="#D82935" stroke-width="2"/></svg>