<svg width="24" height="24" viewBox="0 0 24 24" fill="none" xmlns="http://www.w3.org/2000/svg">
<path fill-rule="evenodd" clip-rule="evenodd" d="M6 3C6 2.45228 6.45228 2 7 2H9V3H15V2H17C17.5477 2 18 2.45228 18 3V21C18 21.5477 17.5477 22 17 22H7C6.45228 22 6 21.5477 6 21V10H4V21C4 22.6523 5.34772 24 7 24H17C18.6523 24 20 22.6523 20 21V3C20 1.34772 18.6523 0 17 0H7C5.34772 0 4 1.34772 4 3V6H6V3ZM9 20H11V18H9V20ZM15 20H13V18H15V20Z" fill="white"/>
<circle cx="12" cy="9" r="3" fill="white"/>
</svg>
