<svg width="32" height="33" viewBox="0 0 32 33" fill="none" xmlns="http://www.w3.org/2000/svg">
<mask id="path-1-outside-1_361_44" maskUnits="userSpaceOnUse" x="0" y="0" width="32" height="33" fill="black">
<rect fill="white" width="32" height="33"/>
<path fill-rule="evenodd" clip-rule="evenodd" d="M22.7162 1.01932C22.6646 1.03182 22.4115 1.07619 22.1537 1.11794C19.9132 1.48051 17.8177 3.04707 16.7639 5.14707C16.2098 6.25126 16.0025 7.14951 15.9995 8.45957C15.9959 10.0573 16.3415 11.2503 17.1884 12.5639L17.4572 12.9808L17.196 13.0837C16.732 13.2664 16.069 13.6924 15.6939 14.0491C15.1719 14.5452 15.0161 14.8818 14.9712 15.6101L14.9349 16.1981L12.8585 13.0124C11.7164 11.2603 10.6952 9.70688 10.5891 9.56044C10.3535 9.2352 9.8731 8.99207 9.46616 8.99207C9.09891 8.99207 8.58966 9.23138 8.38598 9.49969C7.89173 10.1509 2.13579 19.0616 1.87166 19.5846C1.5301 20.2608 1.27173 21.0064 1.11041 21.7815C0.963352 22.4879 0.963164 24.3344 1.11004 25.0664C1.63716 27.6936 3.31998 29.912 5.68904 31.1029C6.22679 31.3733 7.24841 31.7183 7.8886 31.8458C8.63454 31.9944 10.2915 31.9958 11.0287 31.8485C12.688 31.5168 14.1803 30.7349 15.3405 29.5891L15.8255 29.1101L16.3177 29.4262C18.7346 30.9784 24.0589 31.4501 27.9974 30.4608C30.0037 29.9569 31.2656 29.2314 31.7557 28.3002L31.9349 27.9596V21.4908V15.0221L31.7681 14.7096C31.4625 14.1371 30.6072 13.4394 29.8188 13.1194L29.4756 12.9801L29.7442 12.5636C30.2769 11.7373 30.6594 10.7921 30.8485 9.83457C30.9612 9.26407 30.961 7.71651 30.8482 7.14707C30.5415 5.59844 29.8369 4.28226 28.7225 3.17663C27.6841 2.14626 26.5015 1.49288 25.0912 1.17032C24.6068 1.05951 22.9775 0.955945 22.7162 1.01932ZM24.3809 2.05844C25.3335 2.19094 26.4453 2.63694 27.2474 3.20832C27.6717 3.51057 28.5295 4.38094 28.8192 4.80332C29.3235 5.53838 29.7266 6.55344 29.8741 7.45957C30.2177 9.57045 29.5223 11.6327 27.9544 13.1526C27.2119 13.8724 26.4739 14.3246 25.4974 14.6579C23.5739 15.3144 21.2448 14.9429 19.6182 13.72C19.1777 13.3888 18.3899 12.5812 18.1087 12.1726C17.0034 10.566 16.6794 8.43651 17.2589 6.58713C17.5991 5.50163 18.1405 4.63207 18.9741 3.83263C19.5862 3.24551 19.8868 3.02932 20.5637 2.68944C21.752 2.09276 23.0659 1.87557 24.3809 2.05844ZM22.4439 3.09076C20.2564 3.48594 18.4462 5.31676 18.0615 7.52313C17.4075 11.2733 20.6645 14.5551 24.3936 13.9034C27.3827 13.3811 29.3974 10.5312 28.8782 7.55982C28.35 4.53719 25.4782 2.54257 22.4439 3.09076ZM24.8099 4.20338C25.5192 4.42926 26.0465 4.75826 26.6226 5.33438C27.1937 5.90551 27.5222 6.42907 27.7599 7.14707C27.906 7.58857 27.9254 7.74582 27.9254 8.49082C27.9254 9.23582 27.906 9.39307 27.7599 9.83457C27.5222 10.5526 27.1937 11.0761 26.6226 11.6473C26.0515 12.2184 25.5279 12.5469 24.8099 12.7845C24.3684 12.9306 24.2112 12.95 23.4662 12.95C22.7212 12.95 22.5639 12.9306 22.1224 12.7845C21.408 12.5481 20.8852 12.2199 20.3102 11.6471C19.7389 11.0779 19.4112 10.5559 19.1725 9.83457C19.0264 9.39307 19.007 9.23582 19.007 8.49082C19.007 7.74582 19.0264 7.58857 19.1725 7.14707C19.4102 6.42895 19.7387 5.90545 20.3097 5.33457C21.0127 4.63182 21.7809 4.21644 22.6764 4.05482C23.2349 3.95394 24.2483 4.02457 24.8099 4.20338ZM22.9662 5.54576V6.10063L22.7765 6.17919C22.3564 6.35319 21.9662 6.98488 21.9662 7.49082C21.9662 8.26251 22.6918 8.99082 23.4606 8.99082C23.7233 8.99082 23.9662 9.23107 23.9662 9.49082C23.9662 9.74776 23.7231 9.99082 23.4662 9.99082C23.2576 9.99082 22.9662 9.75569 22.9662 9.58738C22.9662 9.50832 22.8755 9.49082 22.4662 9.49082C21.908 9.49082 21.9057 9.49326 22.0397 9.94038C22.1294 10.2399 22.519 10.6958 22.7765 10.8024L22.9662 10.881V11.4359V11.9908H23.4662H23.9662V11.4359V10.881L24.1558 10.8024C24.5759 10.6284 24.9662 9.99676 24.9662 9.49082C24.9662 8.71913 24.2405 7.99082 23.4717 7.99082C23.209 7.99082 22.9662 7.75057 22.9662 7.49082C22.9662 7.36907 23.0229 7.24094 23.1196 7.14426C23.2163 7.04751 23.3444 6.99082 23.4662 6.99082C23.6747 6.99082 23.9662 7.22594 23.9662 7.39426C23.9662 7.47332 24.0569 7.49082 24.4662 7.49082C25.0243 7.49082 25.0266 7.48838 24.8927 7.04126C24.8029 6.74169 24.4133 6.28588 24.1558 6.17919L23.9662 6.10063V5.54576V4.99082H23.4662H22.9662V5.54576ZM9.73766 10.1314C9.8221 10.2088 11.033 12.0269 12.4287 14.1718L14.9662 18.0714V22.9039C14.9662 27.0881 14.979 27.7744 15.0623 28.0196C15.1814 28.3704 15.1583 28.4178 14.6235 28.918C13.5827 29.8917 12.3387 30.5456 10.9662 30.8408C10.2529 30.9941 8.63716 30.9965 7.97629 30.8452C5.64285 30.3111 3.79591 28.8854 2.75229 26.8129C2.21654 25.7491 1.99741 24.7666 1.99741 23.4283C1.99741 22.0914 2.21566 21.1118 2.75135 20.0437C3.03841 19.4713 8.98454 10.3239 9.1946 10.1314C9.27904 10.0541 9.40123 9.99082 9.46616 9.99082C9.5311 9.99082 9.65329 10.0541 9.73766 10.1314ZM18.4882 14.0929C19.1966 14.7306 20.2047 15.3069 21.144 15.6111C21.9941 15.8864 22.4818 15.9596 23.4662 15.9596C24.4505 15.9596 24.9382 15.8864 25.7883 15.6111C26.7374 15.3037 27.612 14.8058 28.3907 14.1296L28.784 13.788L29.1407 13.9243C29.7059 14.1402 30.2815 14.4878 30.5977 14.8039C31.0587 15.2649 31.0764 15.6522 30.6579 16.1273C30.0119 16.8606 28.1374 17.5373 25.9037 17.8436C24.9202 17.9784 22.3177 17.9973 21.3099 17.877C18.9963 17.6007 17.0074 16.9139 16.2991 16.1468C15.7559 15.5584 15.9014 15.0238 16.7602 14.4538C17.087 14.2369 17.9845 13.8059 18.1132 13.8041C18.1425 13.8036 18.3113 13.9336 18.4882 14.0929ZM16.4997 17.5369C17.3433 18.0449 18.9769 18.5514 20.4662 18.7668C24.1735 19.3029 28.345 18.7872 30.4349 17.5343C30.6755 17.3901 30.8935 17.2627 30.9193 17.2513C30.945 17.2398 30.9662 17.7699 30.9662 18.4293C30.9662 19.3997 30.9471 19.6684 30.866 19.8393C30.4661 20.6819 28.4569 21.4935 25.9037 21.8436C24.9202 21.9784 22.3177 21.9973 21.3099 21.877C18.6537 21.5598 16.4807 20.7125 16.0624 19.8308C15.9862 19.6703 15.9662 19.3789 15.9662 18.4293C15.9662 17.7699 15.9873 17.2398 16.013 17.2513C16.0389 17.2627 16.2578 17.3913 16.4997 17.5369ZM16.4997 21.5369C17.9322 22.3995 20.7619 22.9895 23.4662 22.9895C26.1822 22.9895 28.994 22.4033 30.4327 21.5369C30.6745 21.3913 30.8935 21.2627 30.9193 21.2513C30.945 21.2398 30.9662 21.7699 30.9662 22.4293C30.9662 23.3997 30.9471 23.6684 30.866 23.8393C30.4661 24.6819 28.4569 25.4935 25.9037 25.8436C24.9265 25.9775 22.3214 25.9972 21.3099 25.8782C18.678 25.5687 16.48 24.7111 16.0624 23.8308C15.9862 23.6703 15.9662 23.3789 15.9662 22.4293C15.9662 21.7699 15.9873 21.2398 16.013 21.2513C16.0389 21.2627 16.2578 21.3913 16.4997 21.5369ZM3.19229 21.6939C3.14285 21.8744 3.08716 22.1105 3.06841 22.2185C3.03504 22.4116 3.03948 22.4157 3.32841 22.4561C3.4901 22.4786 3.71023 22.5122 3.81754 22.5307L4.01266 22.5642L4.11491 22.1114C4.17116 21.8623 4.20991 21.6514 4.20104 21.6428C4.17004 21.6127 3.40704 21.3658 3.34485 21.3658C3.31035 21.3658 3.24173 21.5135 3.19229 21.6939ZM2.96616 23.7051C2.96616 24.4651 3.25454 25.5742 3.66523 26.3933C3.99898 27.0591 4.21691 27.365 4.76885 27.9428C5.54635 28.7566 6.39635 29.3034 7.43491 29.6579C7.89773 29.8158 8.83916 29.9901 9.23179 29.9906L9.46616 29.9908V29.4994V29.0081L9.00023 28.9658C6.91504 28.7769 5.12766 27.4401 4.34723 25.4858C4.1601 25.0174 3.96616 24.1091 3.96616 23.7014V23.4908H3.46616H2.96616V23.7051ZM16.4997 25.5369C17.9322 26.3995 20.7619 26.9895 23.4662 26.9895C26.1822 26.9895 28.994 26.4033 30.4327 25.5369C30.6745 25.3913 30.8935 25.2627 30.9193 25.2513C30.945 25.2398 30.9662 25.7699 30.9662 26.4293C30.9662 27.3997 30.9471 27.6684 30.866 27.8393C30.4664 28.6815 28.4664 29.4897 25.9037 29.8446C24.8091 29.9962 22.1232 29.9962 21.0287 29.8446C18.4659 29.4897 16.466 28.6815 16.0664 27.8393C15.9852 27.6684 15.9662 27.3997 15.9662 26.4293C15.9662 25.7699 15.9873 25.2398 16.013 25.2513C16.0389 25.2627 16.2578 25.3913 16.4997 25.5369Z"/>
</mask>
<path fill-rule="evenodd" clip-rule="evenodd" d="M22.7162 1.01932C22.6646 1.03182 22.4115 1.07619 22.1537 1.11794C19.9132 1.48051 17.8177 3.04707 16.7639 5.14707C16.2098 6.25126 16.0025 7.14951 15.9995 8.45957C15.9959 10.0573 16.3415 11.2503 17.1884 12.5639L17.4572 12.9808L17.196 13.0837C16.732 13.2664 16.069 13.6924 15.6939 14.0491C15.1719 14.5452 15.0161 14.8818 14.9712 15.6101L14.9349 16.1981L12.8585 13.0124C11.7164 11.2603 10.6952 9.70688 10.5891 9.56044C10.3535 9.2352 9.8731 8.99207 9.46616 8.99207C9.09891 8.99207 8.58966 9.23138 8.38598 9.49969C7.89173 10.1509 2.13579 19.0616 1.87166 19.5846C1.5301 20.2608 1.27173 21.0064 1.11041 21.7815C0.963352 22.4879 0.963164 24.3344 1.11004 25.0664C1.63716 27.6936 3.31998 29.912 5.68904 31.1029C6.22679 31.3733 7.24841 31.7183 7.8886 31.8458C8.63454 31.9944 10.2915 31.9958 11.0287 31.8485C12.688 31.5168 14.1803 30.7349 15.3405 29.5891L15.8255 29.1101L16.3177 29.4262C18.7346 30.9784 24.0589 31.4501 27.9974 30.4608C30.0037 29.9569 31.2656 29.2314 31.7557 28.3002L31.9349 27.9596V21.4908V15.0221L31.7681 14.7096C31.4625 14.1371 30.6072 13.4394 29.8188 13.1194L29.4756 12.9801L29.7442 12.5636C30.2769 11.7373 30.6594 10.7921 30.8485 9.83457C30.9612 9.26407 30.961 7.71651 30.8482 7.14707C30.5415 5.59844 29.8369 4.28226 28.7225 3.17663C27.6841 2.14626 26.5015 1.49288 25.0912 1.17032C24.6068 1.05951 22.9775 0.955945 22.7162 1.01932ZM24.3809 2.05844C25.3335 2.19094 26.4453 2.63694 27.2474 3.20832C27.6717 3.51057 28.5295 4.38094 28.8192 4.80332C29.3235 5.53838 29.7266 6.55344 29.8741 7.45957C30.2177 9.57045 29.5223 11.6327 27.9544 13.1526C27.2119 13.8724 26.4739 14.3246 25.4974 14.6579C23.5739 15.3144 21.2448 14.9429 19.6182 13.72C19.1777 13.3888 18.3899 12.5812 18.1087 12.1726C17.0034 10.566 16.6794 8.43651 17.2589 6.58713C17.5991 5.50163 18.1405 4.63207 18.9741 3.83263C19.5862 3.24551 19.8868 3.02932 20.5637 2.68944C21.752 2.09276 23.0659 1.87557 24.3809 2.05844ZM22.4439 3.09076C20.2564 3.48594 18.4462 5.31676 18.0615 7.52313C17.4075 11.2733 20.6645 14.5551 24.3936 13.9034C27.3827 13.3811 29.3974 10.5312 28.8782 7.55982C28.35 4.53719 25.4782 2.54257 22.4439 3.09076ZM24.8099 4.20338C25.5192 4.42926 26.0465 4.75826 26.6226 5.33438C27.1937 5.90551 27.5222 6.42907 27.7599 7.14707C27.906 7.58857 27.9254 7.74582 27.9254 8.49082C27.9254 9.23582 27.906 9.39307 27.7599 9.83457C27.5222 10.5526 27.1937 11.0761 26.6226 11.6473C26.0515 12.2184 25.5279 12.5469 24.8099 12.7845C24.3684 12.9306 24.2112 12.95 23.4662 12.95C22.7212 12.95 22.5639 12.9306 22.1224 12.7845C21.408 12.5481 20.8852 12.2199 20.3102 11.6471C19.7389 11.0779 19.4112 10.5559 19.1725 9.83457C19.0264 9.39307 19.007 9.23582 19.007 8.49082C19.007 7.74582 19.0264 7.58857 19.1725 7.14707C19.4102 6.42895 19.7387 5.90545 20.3097 5.33457C21.0127 4.63182 21.7809 4.21644 22.6764 4.05482C23.2349 3.95394 24.2483 4.02457 24.8099 4.20338ZM22.9662 5.54576V6.10063L22.7765 6.17919C22.3564 6.35319 21.9662 6.98488 21.9662 7.49082C21.9662 8.26251 22.6918 8.99082 23.4606 8.99082C23.7233 8.99082 23.9662 9.23107 23.9662 9.49082C23.9662 9.74776 23.7231 9.99082 23.4662 9.99082C23.2576 9.99082 22.9662 9.75569 22.9662 9.58738C22.9662 9.50832 22.8755 9.49082 22.4662 9.49082C21.908 9.49082 21.9057 9.49326 22.0397 9.94038C22.1294 10.2399 22.519 10.6958 22.7765 10.8024L22.9662 10.881V11.4359V11.9908H23.4662H23.9662V11.4359V10.881L24.1558 10.8024C24.5759 10.6284 24.9662 9.99676 24.9662 9.49082C24.9662 8.71913 24.2405 7.99082 23.4717 7.99082C23.209 7.99082 22.9662 7.75057 22.9662 7.49082C22.9662 7.36907 23.0229 7.24094 23.1196 7.14426C23.2163 7.04751 23.3444 6.99082 23.4662 6.99082C23.6747 6.99082 23.9662 7.22594 23.9662 7.39426C23.9662 7.47332 24.0569 7.49082 24.4662 7.49082C25.0243 7.49082 25.0266 7.48838 24.8927 7.04126C24.8029 6.74169 24.4133 6.28588 24.1558 6.17919L23.9662 6.10063V5.54576V4.99082H23.4662H22.9662V5.54576ZM9.73766 10.1314C9.8221 10.2088 11.033 12.0269 12.4287 14.1718L14.9662 18.0714V22.9039C14.9662 27.0881 14.979 27.7744 15.0623 28.0196C15.1814 28.3704 15.1583 28.4178 14.6235 28.918C13.5827 29.8917 12.3387 30.5456 10.9662 30.8408C10.2529 30.9941 8.63716 30.9965 7.97629 30.8452C5.64285 30.3111 3.79591 28.8854 2.75229 26.8129C2.21654 25.7491 1.99741 24.7666 1.99741 23.4283C1.99741 22.0914 2.21566 21.1118 2.75135 20.0437C3.03841 19.4713 8.98454 10.3239 9.1946 10.1314C9.27904 10.0541 9.40123 9.99082 9.46616 9.99082C9.5311 9.99082 9.65329 10.0541 9.73766 10.1314ZM18.4882 14.0929C19.1966 14.7306 20.2047 15.3069 21.144 15.6111C21.9941 15.8864 22.4818 15.9596 23.4662 15.9596C24.4505 15.9596 24.9382 15.8864 25.7883 15.6111C26.7374 15.3037 27.612 14.8058 28.3907 14.1296L28.784 13.788L29.1407 13.9243C29.7059 14.1402 30.2815 14.4878 30.5977 14.8039C31.0587 15.2649 31.0764 15.6522 30.6579 16.1273C30.0119 16.8606 28.1374 17.5373 25.9037 17.8436C24.9202 17.9784 22.3177 17.9973 21.3099 17.877C18.9963 17.6007 17.0074 16.9139 16.2991 16.1468C15.7559 15.5584 15.9014 15.0238 16.7602 14.4538C17.087 14.2369 17.9845 13.8059 18.1132 13.8041C18.1425 13.8036 18.3113 13.9336 18.4882 14.0929ZM16.4997 17.5369C17.3433 18.0449 18.9769 18.5514 20.4662 18.7668C24.1735 19.3029 28.345 18.7872 30.4349 17.5343C30.6755 17.3901 30.8935 17.2627 30.9193 17.2513C30.945 17.2398 30.9662 17.7699 30.9662 18.4293C30.9662 19.3997 30.9471 19.6684 30.866 19.8393C30.4661 20.6819 28.4569 21.4935 25.9037 21.8436C24.9202 21.9784 22.3177 21.9973 21.3099 21.877C18.6537 21.5598 16.4807 20.7125 16.0624 19.8308C15.9862 19.6703 15.9662 19.3789 15.9662 18.4293C15.9662 17.7699 15.9873 17.2398 16.013 17.2513C16.0389 17.2627 16.2578 17.3913 16.4997 17.5369ZM16.4997 21.5369C17.9322 22.3995 20.7619 22.9895 23.4662 22.9895C26.1822 22.9895 28.994 22.4033 30.4327 21.5369C30.6745 21.3913 30.8935 21.2627 30.9193 21.2513C30.945 21.2398 30.9662 21.7699 30.9662 22.4293C30.9662 23.3997 30.9471 23.6684 30.866 23.8393C30.4661 24.6819 28.4569 25.4935 25.9037 25.8436C24.9265 25.9775 22.3214 25.9972 21.3099 25.8782C18.678 25.5687 16.48 24.7111 16.0624 23.8308C15.9862 23.6703 15.9662 23.3789 15.9662 22.4293C15.9662 21.7699 15.9873 21.2398 16.013 21.2513C16.0389 21.2627 16.2578 21.3913 16.4997 21.5369ZM3.19229 21.6939C3.14285 21.8744 3.08716 22.1105 3.06841 22.2185C3.03504 22.4116 3.03948 22.4157 3.32841 22.4561C3.4901 22.4786 3.71023 22.5122 3.81754 22.5307L4.01266 22.5642L4.11491 22.1114C4.17116 21.8623 4.20991 21.6514 4.20104 21.6428C4.17004 21.6127 3.40704 21.3658 3.34485 21.3658C3.31035 21.3658 3.24173 21.5135 3.19229 21.6939ZM2.96616 23.7051C2.96616 24.4651 3.25454 25.5742 3.66523 26.3933C3.99898 27.0591 4.21691 27.365 4.76885 27.9428C5.54635 28.7566 6.39635 29.3034 7.43491 29.6579C7.89773 29.8158 8.83916 29.9901 9.23179 29.9906L9.46616 29.9908V29.4994V29.0081L9.00023 28.9658C6.91504 28.7769 5.12766 27.4401 4.34723 25.4858C4.1601 25.0174 3.96616 24.1091 3.96616 23.7014V23.4908H3.46616H2.96616V23.7051ZM16.4997 25.5369C17.9322 26.3995 20.7619 26.9895 23.4662 26.9895C26.1822 26.9895 28.994 26.4033 30.4327 25.5369C30.6745 25.3913 30.8935 25.2627 30.9193 25.2513C30.945 25.2398 30.9662 25.7699 30.9662 26.4293C30.9662 27.3997 30.9471 27.6684 30.866 27.8393C30.4664 28.6815 28.4664 29.4897 25.9037 29.8446C24.8091 29.9962 22.1232 29.9962 21.0287 29.8446C18.4659 29.4897 16.466 28.6815 16.0664 27.8393C15.9852 27.6684 15.9662 27.3997 15.9662 26.4293C15.9662 25.7699 15.9873 25.2398 16.013 25.2513C16.0389 25.2627 16.2578 25.3913 16.4997 25.5369Z" fill="white"/>
<path fill-rule="evenodd" clip-rule="evenodd" d="M22.7162 1.01932C22.6646 1.03182 22.4115 1.07619 22.1537 1.11794C19.9132 1.48051 17.8177 3.04707 16.7639 5.14707C16.2098 6.25126 16.0025 7.14951 15.9995 8.45957C15.9959 10.0573 16.3415 11.2503 17.1884 12.5639L17.4572 12.9808L17.196 13.0837C16.732 13.2664 16.069 13.6924 15.6939 14.0491C15.1719 14.5452 15.0161 14.8818 14.9712 15.6101L14.9349 16.1981L12.8585 13.0124C11.7164 11.2603 10.6952 9.70688 10.5891 9.56044C10.3535 9.2352 9.8731 8.99207 9.46616 8.99207C9.09891 8.99207 8.58966 9.23138 8.38598 9.49969C7.89173 10.1509 2.13579 19.0616 1.87166 19.5846C1.5301 20.2608 1.27173 21.0064 1.11041 21.7815C0.963352 22.4879 0.963164 24.3344 1.11004 25.0664C1.63716 27.6936 3.31998 29.912 5.68904 31.1029C6.22679 31.3733 7.24841 31.7183 7.8886 31.8458C8.63454 31.9944 10.2915 31.9958 11.0287 31.8485C12.688 31.5168 14.1803 30.7349 15.3405 29.5891L15.8255 29.1101L16.3177 29.4262C18.7346 30.9784 24.0589 31.4501 27.9974 30.4608C30.0037 29.9569 31.2656 29.2314 31.7557 28.3002L31.9349 27.9596V21.4908V15.0221L31.7681 14.7096C31.4625 14.1371 30.6072 13.4394 29.8188 13.1194L29.4756 12.9801L29.7442 12.5636C30.2769 11.7373 30.6594 10.7921 30.8485 9.83457C30.9612 9.26407 30.961 7.71651 30.8482 7.14707C30.5415 5.59844 29.8369 4.28226 28.7225 3.17663C27.6841 2.14626 26.5015 1.49288 25.0912 1.17032C24.6068 1.05951 22.9775 0.955945 22.7162 1.01932ZM24.3809 2.05844C25.3335 2.19094 26.4453 2.63694 27.2474 3.20832C27.6717 3.51057 28.5295 4.38094 28.8192 4.80332C29.3235 5.53838 29.7266 6.55344 29.8741 7.45957C30.2177 9.57045 29.5223 11.6327 27.9544 13.1526C27.2119 13.8724 26.4739 14.3246 25.4974 14.6579C23.5739 15.3144 21.2448 14.9429 19.6182 13.72C19.1777 13.3888 18.3899 12.5812 18.1087 12.1726C17.0034 10.566 16.6794 8.43651 17.2589 6.58713C17.5991 5.50163 18.1405 4.63207 18.9741 3.83263C19.5862 3.24551 19.8868 3.02932 20.5637 2.68944C21.752 2.09276 23.0659 1.87557 24.3809 2.05844ZM22.4439 3.09076C20.2564 3.48594 18.4462 5.31676 18.0615 7.52313C17.4075 11.2733 20.6645 14.5551 24.3936 13.9034C27.3827 13.3811 29.3974 10.5312 28.8782 7.55982C28.35 4.53719 25.4782 2.54257 22.4439 3.09076ZM24.8099 4.20338C25.5192 4.42926 26.0465 4.75826 26.6226 5.33438C27.1937 5.90551 27.5222 6.42907 27.7599 7.14707C27.906 7.58857 27.9254 7.74582 27.9254 8.49082C27.9254 9.23582 27.906 9.39307 27.7599 9.83457C27.5222 10.5526 27.1937 11.0761 26.6226 11.6473C26.0515 12.2184 25.5279 12.5469 24.8099 12.7845C24.3684 12.9306 24.2112 12.95 23.4662 12.95C22.7212 12.95 22.5639 12.9306 22.1224 12.7845C21.408 12.5481 20.8852 12.2199 20.3102 11.6471C19.7389 11.0779 19.4112 10.5559 19.1725 9.83457C19.0264 9.39307 19.007 9.23582 19.007 8.49082C19.007 7.74582 19.0264 7.58857 19.1725 7.14707C19.4102 6.42895 19.7387 5.90545 20.3097 5.33457C21.0127 4.63182 21.7809 4.21644 22.6764 4.05482C23.2349 3.95394 24.2483 4.02457 24.8099 4.20338ZM22.9662 5.54576V6.10063L22.7765 6.17919C22.3564 6.35319 21.9662 6.98488 21.9662 7.49082C21.9662 8.26251 22.6918 8.99082 23.4606 8.99082C23.7233 8.99082 23.9662 9.23107 23.9662 9.49082C23.9662 9.74776 23.7231 9.99082 23.4662 9.99082C23.2576 9.99082 22.9662 9.75569 22.9662 9.58738C22.9662 9.50832 22.8755 9.49082 22.4662 9.49082C21.908 9.49082 21.9057 9.49326 22.0397 9.94038C22.1294 10.2399 22.519 10.6958 22.7765 10.8024L22.9662 10.881V11.4359V11.9908H23.4662H23.9662V11.4359V10.881L24.1558 10.8024C24.5759 10.6284 24.9662 9.99676 24.9662 9.49082C24.9662 8.71913 24.2405 7.99082 23.4717 7.99082C23.209 7.99082 22.9662 7.75057 22.9662 7.49082C22.9662 7.36907 23.0229 7.24094 23.1196 7.14426C23.2163 7.04751 23.3444 6.99082 23.4662 6.99082C23.6747 6.99082 23.9662 7.22594 23.9662 7.39426C23.9662 7.47332 24.0569 7.49082 24.4662 7.49082C25.0243 7.49082 25.0266 7.48838 24.8927 7.04126C24.8029 6.74169 24.4133 6.28588 24.1558 6.17919L23.9662 6.10063V5.54576V4.99082H23.4662H22.9662V5.54576ZM9.73766 10.1314C9.8221 10.2088 11.033 12.0269 12.4287 14.1718L14.9662 18.0714V22.9039C14.9662 27.0881 14.979 27.7744 15.0623 28.0196C15.1814 28.3704 15.1583 28.4178 14.6235 28.918C13.5827 29.8917 12.3387 30.5456 10.9662 30.8408C10.2529 30.9941 8.63716 30.9965 7.97629 30.8452C5.64285 30.3111 3.79591 28.8854 2.75229 26.8129C2.21654 25.7491 1.99741 24.7666 1.99741 23.4283C1.99741 22.0914 2.21566 21.1118 2.75135 20.0437C3.03841 19.4713 8.98454 10.3239 9.1946 10.1314C9.27904 10.0541 9.40123 9.99082 9.46616 9.99082C9.5311 9.99082 9.65329 10.0541 9.73766 10.1314ZM18.4882 14.0929C19.1966 14.7306 20.2047 15.3069 21.144 15.6111C21.9941 15.8864 22.4818 15.9596 23.4662 15.9596C24.4505 15.9596 24.9382 15.8864 25.7883 15.6111C26.7374 15.3037 27.612 14.8058 28.3907 14.1296L28.784 13.788L29.1407 13.9243C29.7059 14.1402 30.2815 14.4878 30.5977 14.8039C31.0587 15.2649 31.0764 15.6522 30.6579 16.1273C30.0119 16.8606 28.1374 17.5373 25.9037 17.8436C24.9202 17.9784 22.3177 17.9973 21.3099 17.877C18.9963 17.6007 17.0074 16.9139 16.2991 16.1468C15.7559 15.5584 15.9014 15.0238 16.7602 14.4538C17.087 14.2369 17.9845 13.8059 18.1132 13.8041C18.1425 13.8036 18.3113 13.9336 18.4882 14.0929ZM16.4997 17.5369C17.3433 18.0449 18.9769 18.5514 20.4662 18.7668C24.1735 19.3029 28.345 18.7872 30.4349 17.5343C30.6755 17.3901 30.8935 17.2627 30.9193 17.2513C30.945 17.2398 30.9662 17.7699 30.9662 18.4293C30.9662 19.3997 30.9471 19.6684 30.866 19.8393C30.4661 20.6819 28.4569 21.4935 25.9037 21.8436C24.9202 21.9784 22.3177 21.9973 21.3099 21.877C18.6537 21.5598 16.4807 20.7125 16.0624 19.8308C15.9862 19.6703 15.9662 19.3789 15.9662 18.4293C15.9662 17.7699 15.9873 17.2398 16.013 17.2513C16.0389 17.2627 16.2578 17.3913 16.4997 17.5369ZM16.4997 21.5369C17.9322 22.3995 20.7619 22.9895 23.4662 22.9895C26.1822 22.9895 28.994 22.4033 30.4327 21.5369C30.6745 21.3913 30.8935 21.2627 30.9193 21.2513C30.945 21.2398 30.9662 21.7699 30.9662 22.4293C30.9662 23.3997 30.9471 23.6684 30.866 23.8393C30.4661 24.6819 28.4569 25.4935 25.9037 25.8436C24.9265 25.9775 22.3214 25.9972 21.3099 25.8782C18.678 25.5687 16.48 24.7111 16.0624 23.8308C15.9862 23.6703 15.9662 23.3789 15.9662 22.4293C15.9662 21.7699 15.9873 21.2398 16.013 21.2513C16.0389 21.2627 16.2578 21.3913 16.4997 21.5369ZM3.19229 21.6939C3.14285 21.8744 3.08716 22.1105 3.06841 22.2185C3.03504 22.4116 3.03948 22.4157 3.32841 22.4561C3.4901 22.4786 3.71023 22.5122 3.81754 22.5307L4.01266 22.5642L4.11491 22.1114C4.17116 21.8623 4.20991 21.6514 4.20104 21.6428C4.17004 21.6127 3.40704 21.3658 3.34485 21.3658C3.31035 21.3658 3.24173 21.5135 3.19229 21.6939ZM2.96616 23.7051C2.96616 24.4651 3.25454 25.5742 3.66523 26.3933C3.99898 27.0591 4.21691 27.365 4.76885 27.9428C5.54635 28.7566 6.39635 29.3034 7.43491 29.6579C7.89773 29.8158 8.83916 29.9901 9.23179 29.9906L9.46616 29.9908V29.4994V29.0081L9.00023 28.9658C6.91504 28.7769 5.12766 27.4401 4.34723 25.4858C4.1601 25.0174 3.96616 24.1091 3.96616 23.7014V23.4908H3.46616H2.96616V23.7051ZM16.4997 25.5369C17.9322 26.3995 20.7619 26.9895 23.4662 26.9895C26.1822 26.9895 28.994 26.4033 30.4327 25.5369C30.6745 25.3913 30.8935 25.2627 30.9193 25.2513C30.945 25.2398 30.9662 25.7699 30.9662 26.4293C30.9662 27.3997 30.9471 27.6684 30.866 27.8393C30.4664 28.6815 28.4664 29.4897 25.9037 29.8446C24.8091 29.9962 22.1232 29.9962 21.0287 29.8446C18.4659 29.4897 16.466 28.6815 16.0664 27.8393C15.9852 27.6684 15.9662 27.3997 15.9662 26.4293C15.9662 25.7699 15.9873 25.2398 16.013 25.2513C16.0389 25.2627 16.2578 25.3913 16.4997 25.5369Z" stroke="white" stroke-width="0.1" mask="url(#path-1-outside-1_361_44)"/>
</svg>
