<svg width="28" height="28" viewBox="0 0 28 28" fill="none" xmlns="http://www.w3.org/2000/svg">
<mask id="path-1-inside-1_361_59" fill="white">
<path fill-rule="evenodd" clip-rule="evenodd" d="M13.5827 0.0365654C13.0795 0.1688 12.6375 0.531105 12.4066 1.00082C12.2782 1.26222 12.2714 1.3285 12.2529 2.50472C12.2287 4.04904 12.2907 3.94224 11.2585 4.21764C3.64658 6.24852 1.46898 6.84707 1.27188 6.96252C1.00616 7.11821 0.752132 7.39504 0.581288 7.71524C0.478257 7.90823 0.458077 8.03144 0.458077 8.46566C0.458077 9.04764 0.539233 9.26749 0.902523 9.6696C1.37617 10.1939 2.01651 10.3166 2.9597 10.0638C3.28301 9.97717 3.54759 9.91269 3.54759 9.92051C3.54759 9.92833 2.75747 11.3946 1.7918 13.1787C0.534148 15.5024 0.0280148 16.4877 0.00772572 16.6519C-0.0309383 16.965 0.0799679 17.6778 0.241077 18.1515C0.791616 19.7701 2.07699 20.9437 3.74835 21.3538C4.25454 21.4779 5.35693 21.4778 5.86377 21.3534C7.96656 20.8376 9.46719 19.0963 9.60106 17.0168L9.63322 16.5171L7.7115 12.9619C6.65455 11.0065 5.78978 9.38375 5.78978 9.3557C5.78978 9.32764 6.21432 9.19092 6.73314 9.05191C7.25201 8.91289 8.68986 8.52724 9.92837 8.1949C11.1669 7.86257 12.1943 7.59066 12.2116 7.59066C12.2288 7.59066 12.2429 10.8498 12.2429 14.8331V22.0756L10.5886 22.0929L8.93431 22.1102L8.64901 22.2606C8.03924 22.582 7.68284 23.1395 7.67874 23.7782C7.67754 23.9737 7.6969 24.2136 7.72183 24.3114L7.76723 24.4891H6.67785C5.7702 24.4891 5.51771 24.5072 5.16399 24.5977C4.62723 24.735 4.20477 24.9746 3.81819 25.3613C3.43155 25.7478 3.19191 26.1703 3.05458 26.7071C2.93044 27.1925 2.91765 27.4841 3.01138 27.6898C3.15652 28.0085 2.44635 27.9891 13.9929 27.9891C25.5395 27.9891 24.8293 28.0085 24.9744 27.6898C25.0682 27.4841 25.0554 27.1925 24.9312 26.7071C24.794 26.1705 24.5584 25.7577 24.1648 25.3641C23.7711 24.9705 23.3584 24.7349 22.8218 24.5977C22.4681 24.5072 22.2156 24.4891 21.308 24.4891H20.2186L20.264 24.3114C20.2889 24.2136 20.3083 23.9737 20.3071 23.7782C20.303 23.1395 19.9466 22.582 19.3368 22.2606L19.0515 22.1102L17.3972 22.0929L15.7429 22.0756V19.2054C15.7429 16.0917 15.7442 16.1054 15.4437 15.9685C15.2623 15.8859 15.1297 15.8859 14.9484 15.9685C14.6478 16.1054 14.6492 16.0913 14.6492 19.209V22.0828H13.9929H13.3367V14.8202V7.55763L13.6648 7.61188C13.8818 7.64781 14.104 7.64781 14.321 7.61188L14.6492 7.55763V9.60032C14.6492 11.816 14.6567 11.8768 14.9484 12.0097C15.1297 12.0923 15.2623 12.0923 15.4437 12.0097C15.7395 11.8749 15.7427 11.8451 15.7449 9.24769C15.7468 6.85599 15.747 6.85216 15.8679 6.70964C15.9752 6.58332 16.3326 6.47509 18.9904 5.76448C20.6412 5.3231 21.9995 4.96971 22.009 4.97917C22.0185 4.98863 21.6671 5.66003 21.2282 6.47121C18.1711 12.122 18.3679 11.7336 18.3679 12.116C18.3679 13.1941 18.8644 14.3516 19.7063 15.2361C20.4213 15.9873 21.2373 16.4427 22.2393 16.65C22.8124 16.7685 23.9229 16.7256 24.4831 16.5634C26.2147 16.0621 27.5207 14.6452 27.8894 12.868C28.097 11.8668 28.253 12.2604 26.0046 8.11019C24.9128 6.09496 24.0249 4.43853 24.0316 4.42923C24.0382 4.41999 24.5934 4.26511 25.2654 4.08519C26.5411 3.74356 26.8257 3.6221 27.1101 3.29824C27.4509 2.91007 27.5277 2.69367 27.5277 2.12191C27.5277 1.68523 27.5078 1.56492 27.4025 1.3675C27.2095 1.00563 26.9199 0.718245 26.5798 0.551284C25.9712 0.252417 26.0609 0.235136 20.6277 1.6983C17.9754 2.41252 15.7939 2.99691 15.7799 2.99691C15.7659 2.99691 15.7447 2.60934 15.7327 2.13558C15.7126 1.33228 15.7013 1.25544 15.566 0.994964C15.3529 0.584862 15.1859 0.410901 14.8161 0.213808C14.4635 0.0259014 13.9203 -0.0521924 13.5827 0.0365654ZM14.4527 1.29842L14.6218 1.46746L14.6394 2.24933L14.6569 3.0312L14.3249 2.97629C14.1027 2.93954 13.8831 2.93954 13.6609 2.97629L13.3289 3.0312L13.3464 2.25267C13.3632 1.50968 13.3702 1.46741 13.5007 1.32719C13.6837 1.13053 13.8147 1.07978 14.0699 1.1068C14.2161 1.12228 14.3368 1.18276 14.4527 1.29842ZM26.1353 1.54862C26.5769 1.77694 26.5533 2.53283 26.099 2.71204C26.0127 2.74606 25.4745 2.89858 24.9031 3.051C24.3316 3.20341 23.8325 3.3392 23.794 3.35282C23.739 3.37223 23.7273 3.22939 23.7393 2.68694L23.7546 1.99635L24.7117 1.73636C25.7788 1.44646 25.9055 1.42973 26.1353 1.54862ZM22.6335 2.9659C22.6335 3.62281 22.6294 3.64714 22.5105 3.68537C22.4428 3.70708 21.034 4.087 19.3798 4.52953L16.3721 5.3342L16.3105 4.96823C16.2765 4.76692 16.1974 4.486 16.1345 4.34397C16.0511 4.15535 16.0382 4.07885 16.0867 4.06025C16.1232 4.04631 17.605 3.64386 19.3796 3.166C21.1542 2.68814 22.6124 2.29467 22.6199 2.29155C22.6273 2.28849 22.6335 2.59195 22.6335 2.9659ZM14.4851 4.14994C14.6204 4.2113 14.7898 4.31537 14.8615 4.38116C15.0588 4.56239 15.2497 5.01209 15.249 5.29378C15.2483 5.56416 15.092 5.95933 14.9055 6.16233C14.725 6.35899 14.2746 6.5505 13.9929 6.5505C13.7112 6.5505 13.2609 6.35899 13.0803 6.16233C12.7483 5.8009 12.6523 5.23565 12.8491 4.8016C12.999 4.47085 13.1475 4.31964 13.4734 4.16596C13.8117 4.00644 14.1565 4.00097 14.4851 4.14994ZM24.8664 8.3016L26.5062 11.3368L23.194 11.3509C21.3723 11.3586 19.8738 11.3569 19.864 11.3472C19.8287 11.3118 23.154 5.19639 23.1898 5.23095C23.21 5.25047 23.9645 6.63226 24.8664 8.3016ZM11.6565 5.53397C11.6732 5.69612 11.7477 5.9794 11.822 6.16342C11.8964 6.34745 11.9415 6.50724 11.9223 6.51846C11.9031 6.52972 11.0384 6.76603 10.0007 7.04357C8.96302 7.32116 7.49876 7.71403 6.74681 7.91665L5.37962 8.28497L5.3642 7.62965C5.35573 7.26926 5.36169 6.96148 5.37744 6.94573C5.39871 6.92446 11.402 5.28224 11.5927 5.24549C11.611 5.24199 11.6398 5.37177 11.6565 5.53397ZM4.21926 8.57476C4.15244 8.63114 2.26884 9.12196 2.12096 9.12153C1.95553 9.12109 1.69035 8.94964 1.59815 8.78339C1.44551 8.50832 1.55768 8.04719 1.81012 7.91206C1.87656 7.87651 2.44843 7.70928 3.08105 7.5404L4.23119 7.23333L4.24661 7.88603C4.25508 8.245 4.24278 8.55496 4.21926 8.57476ZM6.48907 13.0003C7.39781 14.6823 8.14134 16.0727 8.14134 16.0902C8.14134 16.1076 6.63809 16.1219 4.80087 16.1219C2.90523 16.1219 1.46826 16.1011 1.4786 16.0739C1.53394 15.928 4.78293 9.94501 4.80743 9.94375C4.82362 9.94288 5.58033 11.3184 6.48907 13.0003ZM26.8438 12.5262C26.8424 12.6715 26.6864 13.1732 26.5498 13.4716C26.1284 14.3919 25.4129 15.0488 24.4168 15.4298C23.9952 15.5911 23.9342 15.5995 23.1804 15.6004C22.4562 15.6013 22.3527 15.5888 21.9863 15.4554C20.8693 15.0487 19.9864 14.1591 19.6534 13.1047C19.578 12.8661 19.5163 12.623 19.5163 12.5644C19.5163 12.4599 19.5851 12.4578 23.1804 12.4578C26.0756 12.4578 26.8444 12.4722 26.8438 12.5262ZM14.9286 13.5186C14.4545 13.7813 14.6529 14.536 15.196 14.536C15.4731 14.536 15.7429 14.2688 15.7429 13.9944C15.7429 13.5838 15.2892 13.3187 14.9286 13.5186ZM8.44819 17.4362C8.42878 17.5574 8.34894 17.8164 8.27079 18.0117C7.77778 19.2431 6.68392 20.1143 5.3548 20.3338C3.99286 20.5588 2.47151 19.8671 1.68986 18.6674C1.47062 18.331 1.14369 17.5215 1.14205 17.3114C1.1414 17.2212 1.35233 17.2157 4.81241 17.2157H8.48347L8.44819 17.4362ZM19.0368 23.3827C19.1906 23.5366 19.2156 23.5993 19.2156 23.8328C19.2156 24.0664 19.1907 24.1291 19.0368 24.283L18.858 24.4618H13.9929H9.1278L8.94902 24.283C8.79573 24.1297 8.77025 24.0659 8.77025 23.8362C8.77025 23.5543 8.91216 23.329 9.15306 23.2283C9.21322 23.2032 11.4214 23.1874 14.0602 23.1933L18.858 23.2039L19.0368 23.3827ZM22.6122 25.6636C22.7618 25.708 23.0055 25.8307 23.1539 25.9362C23.417 26.1232 23.8367 26.6658 23.8367 26.8188C23.8367 26.8841 22.391 26.8953 13.9929 26.8953C5.93612 26.8953 4.14916 26.8824 4.14916 26.824C4.14916 26.6088 4.6694 25.9901 4.99681 25.8159C5.4301 25.5853 5.23159 25.5903 13.9693 25.5865C21.1998 25.5833 22.3773 25.5938 22.6122 25.6636Z"/>
</mask>
<path fill-rule="evenodd" clip-rule="evenodd" d="M13.5827 0.0365654C13.0795 0.1688 12.6375 0.531105 12.4066 1.00082C12.2782 1.26222 12.2714 1.3285 12.2529 2.50472C12.2287 4.04904 12.2907 3.94224 11.2585 4.21764C3.64658 6.24852 1.46898 6.84707 1.27188 6.96252C1.00616 7.11821 0.752132 7.39504 0.581288 7.71524C0.478257 7.90823 0.458077 8.03144 0.458077 8.46566C0.458077 9.04764 0.539233 9.26749 0.902523 9.6696C1.37617 10.1939 2.01651 10.3166 2.9597 10.0638C3.28301 9.97717 3.54759 9.91269 3.54759 9.92051C3.54759 9.92833 2.75747 11.3946 1.7918 13.1787C0.534148 15.5024 0.0280148 16.4877 0.00772572 16.6519C-0.0309383 16.965 0.0799679 17.6778 0.241077 18.1515C0.791616 19.7701 2.07699 20.9437 3.74835 21.3538C4.25454 21.4779 5.35693 21.4778 5.86377 21.3534C7.96656 20.8376 9.46719 19.0963 9.60106 17.0168L9.63322 16.5171L7.7115 12.9619C6.65455 11.0065 5.78978 9.38375 5.78978 9.3557C5.78978 9.32764 6.21432 9.19092 6.73314 9.05191C7.25201 8.91289 8.68986 8.52724 9.92837 8.1949C11.1669 7.86257 12.1943 7.59066 12.2116 7.59066C12.2288 7.59066 12.2429 10.8498 12.2429 14.8331V22.0756L10.5886 22.0929L8.93431 22.1102L8.64901 22.2606C8.03924 22.582 7.68284 23.1395 7.67874 23.7782C7.67754 23.9737 7.6969 24.2136 7.72183 24.3114L7.76723 24.4891H6.67785C5.7702 24.4891 5.51771 24.5072 5.16399 24.5977C4.62723 24.735 4.20477 24.9746 3.81819 25.3613C3.43155 25.7478 3.19191 26.1703 3.05458 26.7071C2.93044 27.1925 2.91765 27.4841 3.01138 27.6898C3.15652 28.0085 2.44635 27.9891 13.9929 27.9891C25.5395 27.9891 24.8293 28.0085 24.9744 27.6898C25.0682 27.4841 25.0554 27.1925 24.9312 26.7071C24.794 26.1705 24.5584 25.7577 24.1648 25.3641C23.7711 24.9705 23.3584 24.7349 22.8218 24.5977C22.4681 24.5072 22.2156 24.4891 21.308 24.4891H20.2186L20.264 24.3114C20.2889 24.2136 20.3083 23.9737 20.3071 23.7782C20.303 23.1395 19.9466 22.582 19.3368 22.2606L19.0515 22.1102L17.3972 22.0929L15.7429 22.0756V19.2054C15.7429 16.0917 15.7442 16.1054 15.4437 15.9685C15.2623 15.8859 15.1297 15.8859 14.9484 15.9685C14.6478 16.1054 14.6492 16.0913 14.6492 19.209V22.0828H13.9929H13.3367V14.8202V7.55763L13.6648 7.61188C13.8818 7.64781 14.104 7.64781 14.321 7.61188L14.6492 7.55763V9.60032C14.6492 11.816 14.6567 11.8768 14.9484 12.0097C15.1297 12.0923 15.2623 12.0923 15.4437 12.0097C15.7395 11.8749 15.7427 11.8451 15.7449 9.24769C15.7468 6.85599 15.747 6.85216 15.8679 6.70964C15.9752 6.58332 16.3326 6.47509 18.9904 5.76448C20.6412 5.3231 21.9995 4.96971 22.009 4.97917C22.0185 4.98863 21.6671 5.66003 21.2282 6.47121C18.1711 12.122 18.3679 11.7336 18.3679 12.116C18.3679 13.1941 18.8644 14.3516 19.7063 15.2361C20.4213 15.9873 21.2373 16.4427 22.2393 16.65C22.8124 16.7685 23.9229 16.7256 24.4831 16.5634C26.2147 16.0621 27.5207 14.6452 27.8894 12.868C28.097 11.8668 28.253 12.2604 26.0046 8.11019C24.9128 6.09496 24.0249 4.43853 24.0316 4.42923C24.0382 4.41999 24.5934 4.26511 25.2654 4.08519C26.5411 3.74356 26.8257 3.6221 27.1101 3.29824C27.4509 2.91007 27.5277 2.69367 27.5277 2.12191C27.5277 1.68523 27.5078 1.56492 27.4025 1.3675C27.2095 1.00563 26.9199 0.718245 26.5798 0.551284C25.9712 0.252417 26.0609 0.235136 20.6277 1.6983C17.9754 2.41252 15.7939 2.99691 15.7799 2.99691C15.7659 2.99691 15.7447 2.60934 15.7327 2.13558C15.7126 1.33228 15.7013 1.25544 15.566 0.994964C15.3529 0.584862 15.1859 0.410901 14.8161 0.213808C14.4635 0.0259014 13.9203 -0.0521924 13.5827 0.0365654ZM14.4527 1.29842L14.6218 1.46746L14.6394 2.24933L14.6569 3.0312L14.3249 2.97629C14.1027 2.93954 13.8831 2.93954 13.6609 2.97629L13.3289 3.0312L13.3464 2.25267C13.3632 1.50968 13.3702 1.46741 13.5007 1.32719C13.6837 1.13053 13.8147 1.07978 14.0699 1.1068C14.2161 1.12228 14.3368 1.18276 14.4527 1.29842ZM26.1353 1.54862C26.5769 1.77694 26.5533 2.53283 26.099 2.71204C26.0127 2.74606 25.4745 2.89858 24.9031 3.051C24.3316 3.20341 23.8325 3.3392 23.794 3.35282C23.739 3.37223 23.7273 3.22939 23.7393 2.68694L23.7546 1.99635L24.7117 1.73636C25.7788 1.44646 25.9055 1.42973 26.1353 1.54862ZM22.6335 2.9659C22.6335 3.62281 22.6294 3.64714 22.5105 3.68537C22.4428 3.70708 21.034 4.087 19.3798 4.52953L16.3721 5.3342L16.3105 4.96823C16.2765 4.76692 16.1974 4.486 16.1345 4.34397C16.0511 4.15535 16.0382 4.07885 16.0867 4.06025C16.1232 4.04631 17.605 3.64386 19.3796 3.166C21.1542 2.68814 22.6124 2.29467 22.6199 2.29155C22.6273 2.28849 22.6335 2.59195 22.6335 2.9659ZM14.4851 4.14994C14.6204 4.2113 14.7898 4.31537 14.8615 4.38116C15.0588 4.56239 15.2497 5.01209 15.249 5.29378C15.2483 5.56416 15.092 5.95933 14.9055 6.16233C14.725 6.35899 14.2746 6.5505 13.9929 6.5505C13.7112 6.5505 13.2609 6.35899 13.0803 6.16233C12.7483 5.8009 12.6523 5.23565 12.8491 4.8016C12.999 4.47085 13.1475 4.31964 13.4734 4.16596C13.8117 4.00644 14.1565 4.00097 14.4851 4.14994ZM24.8664 8.3016L26.5062 11.3368L23.194 11.3509C21.3723 11.3586 19.8738 11.3569 19.864 11.3472C19.8287 11.3118 23.154 5.19639 23.1898 5.23095C23.21 5.25047 23.9645 6.63226 24.8664 8.3016ZM11.6565 5.53397C11.6732 5.69612 11.7477 5.9794 11.822 6.16342C11.8964 6.34745 11.9415 6.50724 11.9223 6.51846C11.9031 6.52972 11.0384 6.76603 10.0007 7.04357C8.96302 7.32116 7.49876 7.71403 6.74681 7.91665L5.37962 8.28497L5.3642 7.62965C5.35573 7.26926 5.36169 6.96148 5.37744 6.94573C5.39871 6.92446 11.402 5.28224 11.5927 5.24549C11.611 5.24199 11.6398 5.37177 11.6565 5.53397ZM4.21926 8.57476C4.15244 8.63114 2.26884 9.12196 2.12096 9.12153C1.95553 9.12109 1.69035 8.94964 1.59815 8.78339C1.44551 8.50832 1.55768 8.04719 1.81012 7.91206C1.87656 7.87651 2.44843 7.70928 3.08105 7.5404L4.23119 7.23333L4.24661 7.88603C4.25508 8.245 4.24278 8.55496 4.21926 8.57476ZM6.48907 13.0003C7.39781 14.6823 8.14134 16.0727 8.14134 16.0902C8.14134 16.1076 6.63809 16.1219 4.80087 16.1219C2.90523 16.1219 1.46826 16.1011 1.4786 16.0739C1.53394 15.928 4.78293 9.94501 4.80743 9.94375C4.82362 9.94288 5.58033 11.3184 6.48907 13.0003ZM26.8438 12.5262C26.8424 12.6715 26.6864 13.1732 26.5498 13.4716C26.1284 14.3919 25.4129 15.0488 24.4168 15.4298C23.9952 15.5911 23.9342 15.5995 23.1804 15.6004C22.4562 15.6013 22.3527 15.5888 21.9863 15.4554C20.8693 15.0487 19.9864 14.1591 19.6534 13.1047C19.578 12.8661 19.5163 12.623 19.5163 12.5644C19.5163 12.4599 19.5851 12.4578 23.1804 12.4578C26.0756 12.4578 26.8444 12.4722 26.8438 12.5262ZM14.9286 13.5186C14.4545 13.7813 14.6529 14.536 15.196 14.536C15.4731 14.536 15.7429 14.2688 15.7429 13.9944C15.7429 13.5838 15.2892 13.3187 14.9286 13.5186ZM8.44819 17.4362C8.42878 17.5574 8.34894 17.8164 8.27079 18.0117C7.77778 19.2431 6.68392 20.1143 5.3548 20.3338C3.99286 20.5588 2.47151 19.8671 1.68986 18.6674C1.47062 18.331 1.14369 17.5215 1.14205 17.3114C1.1414 17.2212 1.35233 17.2157 4.81241 17.2157H8.48347L8.44819 17.4362ZM19.0368 23.3827C19.1906 23.5366 19.2156 23.5993 19.2156 23.8328C19.2156 24.0664 19.1907 24.1291 19.0368 24.283L18.858 24.4618H13.9929H9.1278L8.94902 24.283C8.79573 24.1297 8.77025 24.0659 8.77025 23.8362C8.77025 23.5543 8.91216 23.329 9.15306 23.2283C9.21322 23.2032 11.4214 23.1874 14.0602 23.1933L18.858 23.2039L19.0368 23.3827ZM22.6122 25.6636C22.7618 25.708 23.0055 25.8307 23.1539 25.9362C23.417 26.1232 23.8367 26.6658 23.8367 26.8188C23.8367 26.8841 22.391 26.8953 13.9929 26.8953C5.93612 26.8953 4.14916 26.8824 4.14916 26.824C4.14916 26.6088 4.6694 25.9901 4.99681 25.8159C5.4301 25.5853 5.23159 25.5903 13.9693 25.5865C21.1998 25.5833 22.3773 25.5938 22.6122 25.6636Z" fill="white" stroke="#D82935" stroke-width="0.2" mask="url(#path-1-inside-1_361_59)"/>
</svg>
